<?xml version="1.0" encoding="UTF-8"?>
<svg id="Capa_1" xmlns="http://www.w3.org/2000/svg" version="1.1" viewBox="0 0 585.5 586.4">
  <!-- Generator: Adobe Illustrator 29.6.1, SVG Export Plug-In . SVG Version: 2.1.1 Build 9)  -->
  <defs>
    <style>
      .st0 {
        fill: #43b17b;
        fill-rule: evenodd;
      }
    </style>
  </defs>
  <path class="st0" d="M258.5,51.5c7.2-7.5.8-20-9.5-18.3C123.9,54.2,28.5,163,28.5,294s.9,25.1,2.6,37.3c1,6.8,7.9,10.9,14.4,8.7,126.3-43.6,137.4-209.4,213-288.5Z"/>
  <path class="st0" d="M66.3,430.2c0,.1.1.2.2.3,4.2,7,12.6,10.4,20.5,8.2,192.5-53.4,171.3-273.1,375.4-325.1,8.5-2.2,11.2-12.9,4.5-18.7l-.3-.2c-6.6-5.8-14.8-9.5-23.5-10.5-233.3-26.9-216.4,250.8-368.7,319.9-10,4.6-13.9,16.8-8.2,26.2Z"/>
  <path class="st0" d="M498.2,139.1c-184.1,56.2-188,294.2-292.9,387.4-6.2,5.5-4.3,15.8,3.6,18.4,25.4,8.5,52.5,13.3,80.6,13.6,147,1.9,268.2-117.9,267.9-265-.1-55.8-17.5-107.6-47.2-150.3-2.7-3.9-7.6-5.6-12.1-4.2Z"/>
</svg>